<svg xmlns="http://www.w3.org/2000/svg" width="181.599" height="250.999" viewBox="0 0 181.599 250.999">
  <g id="Group_3713" data-name="Group 3713" style="mix-blend-mode: multiply;isolation: isolate">
    <g id="Group_627" data-name="Group 627" transform="translate(9.02 0.284)">
      <g id="Group_626" data-name="Group 626">
        <g id="Group_625" data-name="Group 625">
          <g id="Group_624" data-name="Group 624">
            <rect id="Rectangle_484" data-name="Rectangle 484" width="172.579" height="250.145" fill="#e0e0e0"/>
          </g>
        </g>
      </g>
    </g>
    <g id="Group_631" data-name="Group 631" transform="translate(0.374 0.284)">
      <g id="Group_630" data-name="Group 630">
        <g id="Group_629" data-name="Group 629">
          <g id="Group_628" data-name="Group 628">
            <rect id="Rectangle_485" data-name="Rectangle 485" width="172.577" height="250.145" fill="#f5f5f5"/>
          </g>
        </g>
      </g>
    </g>
    <g id="Group_641" data-name="Group 641" transform="translate(21.347 26.904)">
      <g id="Group_635" data-name="Group 635" transform="translate(0.469 0.471)">
        <g id="Group_634" data-name="Group 634">
          <g id="Group_633" data-name="Group 633">
            <g id="Group_632" data-name="Group 632">
              <rect id="Rectangle_486" data-name="Rectangle 486" width="129.695" height="195.96" fill="#fff"/>
            </g>
          </g>
        </g>
      </g>
      <g id="Group_640" data-name="Group 640">
        <g id="Group_639" data-name="Group 639">
          <g id="Group_638" data-name="Group 638">
            <g id="Group_637" data-name="Group 637">
              <g id="Group_636" data-name="Group 636">
                <path id="Path_4432" data-name="Path 4432" d="M191.408,266.688s-.016-.333-.025-.959c-.005-.647-.014-1.571-.025-2.779-.012-2.464-.03-6.069-.053-10.749-.027-9.392-.065-23.077-.115-40.367-.051-34.555-.126-83.486-.212-141.107l.43.43L61.729,71.2h-.014l.469-.469c-.037,73.924-.069,142.084-.1,195.96l-.373-.373,94.4.2,26.081.1,6.847.041c1.549.012,2.365.041,2.365.041s-.764.026-2.287.041l-6.776.041-26,.1-94.633.2H61.34v-.375c-.027-53.877-.058-122.036-.1-195.96v-.47h.486c46.147.014,90.055.028,129.679.039h.432v.432c-.087,57.738-.159,106.767-.212,141.39-.05,17.247-.088,30.9-.115,40.27-.023,4.643-.041,8.219-.053,10.662q-.016,1.78-.025,2.731C191.426,266.389,191.408,266.688,191.408,266.688Z" transform="translate(-61.244 -70.255)" fill="#e0e0e0"/>
              </g>
            </g>
          </g>
        </g>
      </g>
    </g>
    <g id="Group_646" data-name="Group 646" transform="translate(145.498 28.683)">
      <g id="Group_645" data-name="Group 645">
        <g id="Group_644" data-name="Group 644">
          <g id="Group_643" data-name="Group 643">
            <g id="Group_642" data-name="Group 642">
              <path id="Path_4433" data-name="Path 4433" d="M131.435,71.261" transform="translate(-131.435 -71.261)" fill="none" stroke="#fbfbfb" stroke-miterlimit="10" stroke-width="0.25"/>
            </g>
          </g>
        </g>
      </g>
    </g>
    <g id="Group_651" data-name="Group 651" transform="translate(149.933 0.281)">
      <g id="Group_650" data-name="Group 650">
        <g id="Group_649" data-name="Group 649">
          <g id="Group_648" data-name="Group 648">
            <g id="Group_647" data-name="Group 647">
              <path id="Path_4434" data-name="Path 4434" d="M157.447,55.206a29.79,29.79,0,0,1-3.076,4.468c-2,2.681-4.85,6.329-8.1,10.271s-6.283,7.436-8.529,9.918a29.924,29.924,0,0,1-3.8,3.875,32.306,32.306,0,0,1,3.293-4.309c2.314-2.807,5.16-6.261,8.31-10.082l8.3-10.086A32.1,32.1,0,0,1,157.447,55.206Z" transform="translate(-133.942 -55.203)" fill="#e0e0e0"/>
            </g>
          </g>
        </g>
      </g>
    </g>
    <g id="Group_661" data-name="Group 661" transform="translate(152.166 222.703)">
      <g id="Group_655" data-name="Group 655" transform="translate(0.006 0.002)">
        <g id="Group_654" data-name="Group 654">
          <g id="Group_653" data-name="Group 653">
            <g id="Group_652" data-name="Group 652">
              <path id="Path_4435" data-name="Path 4435" d="M135.208,180.954a160.6,160.6,0,0,0,22.623,28.291" transform="translate(-135.208 -180.954)" fill="#fff"/>
            </g>
          </g>
        </g>
      </g>
      <g id="Group_660" data-name="Group 660">
        <g id="Group_659" data-name="Group 659">
          <g id="Group_658" data-name="Group 658">
            <g id="Group_657" data-name="Group 657">
              <g id="Group_656" data-name="Group 656">
                <path id="Path_4436" data-name="Path 4436" d="M157.833,209.245a25.813,25.813,0,0,1-3.944-3.587,126.438,126.438,0,0,1-16.045-20.067,25.834,25.834,0,0,1-2.632-4.636,35.67,35.67,0,0,1,3.182,4.264c1.9,2.671,4.576,6.323,7.7,10.229s6.1,7.312,8.283,9.755A36.015,36.015,0,0,1,157.833,209.245Z" transform="translate(-135.205 -180.953)" fill="#e0e0e0"/>
              </g>
            </g>
          </g>
        </g>
      </g>
    </g>
    <g id="Group_671" data-name="Group 671" transform="translate(0 222.054)">
      <g id="Group_665" data-name="Group 665" transform="translate(0.35 0.286)">
        <g id="Group_664" data-name="Group 664">
          <g id="Group_663" data-name="Group 663">
            <g id="Group_662" data-name="Group 662">
              <path id="Path_4437" data-name="Path 4437" d="M49.373,208.638l22.6-27.89" transform="translate(-49.373 -180.748)" fill="#fff"/>
            </g>
          </g>
        </g>
      </g>
      <g id="Group_670" data-name="Group 670" transform="translate(0 0)">
        <g id="Group_669" data-name="Group 669">
          <g id="Group_668" data-name="Group 668">
            <g id="Group_667" data-name="Group 667">
              <g id="Group_666" data-name="Group 666">
                <ellipse id="Ellipse_119" data-name="Ellipse 119" cx="17.949" cy="0.469" rx="17.949" ry="0.469" transform="translate(0 27.89) rotate(-50.974)" fill="#e0e0e0"/>
              </g>
            </g>
          </g>
        </g>
      </g>
    </g>
    <g id="Group_676" data-name="Group 676" transform="translate(0.007)">
      <g id="Group_675" data-name="Group 675" transform="translate(0)">
        <g id="Group_674" data-name="Group 674">
          <g id="Group_673" data-name="Group 673">
            <g id="Group_672" data-name="Group 672">
              <ellipse id="Ellipse_120" data-name="Ellipse 120" cx="17.093" cy="0.47" rx="17.093" ry="0.47" transform="matrix(-0.62, -0.784, 0.784, -0.62, 21.206, 27.396)" fill="#e0e0e0"/>
            </g>
          </g>
        </g>
      </g>
    </g>
    <g id="Group_680" data-name="Group 680" transform="translate(67.678 67.163)">
      <g id="Group_679" data-name="Group 679">
        <g id="Group_678" data-name="Group 678">
          <g id="Group_677" data-name="Group 677">
            <rect id="Rectangle_487" data-name="Rectangle 487" width="43.427" height="123.301" fill="#e0e0e0"/>
          </g>
        </g>
      </g>
    </g>
  </g>
</svg>
